<?xml version="1.0" encoding="UTF-8" standalone="no"?>
<!DOCTYPE svg PUBLIC "-//W3C//DTD SVG 1.0//EN" "http://www.w3.org/TR/2001/PR-SVG-20010719/DTD/svg10.dtd">
<svg width="84cm" height="42cm" viewBox="159 -1 1662 825" xmlns="http://www.w3.org/2000/svg" xmlns:xlink="http://www.w3.org/1999/xlink">
  <g>
    <path style="fill: none; fill-opacity:0; stroke-width: 2; stroke-linejoin: round; stroke: #000000" d="M 582,482.225 A 8,8 0 0 0 590,474.225"/>
    <line style="fill: none; fill-opacity:0; stroke-width: 2; stroke-linejoin: round; stroke: #000000" x1="485" y1="482.225" x2="582" y2="482.225"/>
    <path style="fill: none; fill-opacity:0; stroke-width: 2; stroke-linejoin: round; stroke: #000000" d="M 598,317.25 A 8,8 0 0 0 590,325.25"/>
    <line style="fill: none; fill-opacity:0; stroke-width: 2; stroke-linejoin: round; stroke: #000000" x1="590" y1="474.225" x2="590" y2="325.25"/>
    <line style="fill: none; fill-opacity:0; stroke-width: 2; stroke-linejoin: round; stroke: #000000" x1="598" y1="317.25" x2="690.264" y2="317.25"/>
    <polygon style="fill: #000000" points="480,485.225 480,479.225 486,479.225 486,485.225 "/>
    <line style="fill: none; fill-opacity:0; stroke-width: 2; stroke: #000000" x1="483" y1="488.225" x2="483" y2="476.225"/>
    <polygon style="fill: #000000" points="697.764,317.25 687.764,322.25 690.264,317.25 687.764,312.25 "/>
    <polygon style="fill: none; fill-opacity:0; stroke-width: 2; stroke: #000000" points="697.764,317.25 687.764,322.25 690.264,317.25 687.764,312.25 "/>
  </g>
  <g>
    <rect style="fill: #c2cee4" x="700" y="240" width="200" height="103"/>
    <rect style="fill: none; fill-opacity:0; stroke-width: 2; stroke: #000000" x="700" y="240" width="200" height="103"/>
    <text font-size="12.8014" style="fill: #000000;text-anchor:middle;font-family:sans-serif;font-style:normal;font-weight:700" x="800" y="296.349">
      <tspan x="800" y="296.349">REGISTERS</tspan>
    </text>
    <text font-size="9.60105" style="fill: #000000;text-anchor:end;font-family:sans-serif;font-style:normal;font-weight:700" x="896.4" y="339.4"/>
  </g>
  <g>
    <rect style="fill: #ccede2" x="360" y="460" width="120" height="88.9"/>
    <rect style="fill: none; fill-opacity:0; stroke-width: 2; stroke: #000000" x="360" y="460" width="120" height="88.9"/>
    <text font-size="12.8014" style="fill: #000000;text-anchor:middle;font-family:sans-serif;font-style:normal;font-weight:700" x="420" y="501.298">
      <tspan x="420" y="501.298">FILE</tspan>
      <tspan x="420" y="517.3">RECORDER</tspan>
    </text>
    <text font-size="9.60105" style="fill: #000000;text-anchor:end;font-family:sans-serif;font-style:normal;font-weight:700" x="476.4" y="545.3"/>
  </g>
  <g>
    <rect style="fill: #d8e5e5" x="600" y="540" width="113.3" height="74.9"/>
    <rect style="fill: none; fill-opacity:0; stroke-width: 2; stroke: #000000" x="600" y="540" width="113.3" height="74.9"/>
    <text font-size="12.8014" style="fill: #000000;text-anchor:middle;font-family:sans-serif;font-style:normal;font-weight:700" x="656.65" y="582.299">
      <tspan x="656.65" y="582.299">FILE</tspan>
    </text>
    <text font-size="9.60105" style="fill: #000000;text-anchor:end;font-family:sans-serif;font-style:normal;font-weight:700" x="709.7" y="611.3"/>
  </g>
  <g>
    <rect style="fill: #d8e5e5" x="800" y="580" width="113.3" height="74.9"/>
    <rect style="fill: none; fill-opacity:0; stroke-width: 2; stroke: #000000" x="800" y="580" width="113.3" height="74.9"/>
    <text font-size="12.8014" style="fill: #000000;text-anchor:middle;font-family:sans-serif;font-style:normal;font-weight:700" x="856.65" y="622.299">
      <tspan x="856.65" y="622.299">BATCH</tspan>
    </text>
    <text font-size="9.60105" style="fill: #000000;text-anchor:end;font-family:sans-serif;font-style:normal;font-weight:700" x="909.7" y="651.3"/>
  </g>
  <g>
    <rect style="fill: #d8e5e5" x="780" y="560" width="113.3" height="74.9"/>
    <rect style="fill: none; fill-opacity:0; stroke-width: 2; stroke: #000000" x="780" y="560" width="113.3" height="74.9"/>
    <text font-size="12.8014" style="fill: #000000;text-anchor:middle;font-family:sans-serif;font-style:normal;font-weight:700" x="836.65" y="602.299">
      <tspan x="836.65" y="602.299">BATCH</tspan>
    </text>
    <text font-size="9.60105" style="fill: #000000;text-anchor:end;font-family:sans-serif;font-style:normal;font-weight:700" x="889.7" y="631.3"/>
  </g>
  <g>
    <rect style="fill: #d8e5e5" x="760" y="540" width="113.3" height="74.9"/>
    <rect style="fill: none; fill-opacity:0; stroke-width: 2; stroke: #000000" x="760" y="540" width="113.3" height="74.9"/>
    <text font-size="12.8014" style="fill: #000000;text-anchor:middle;font-family:sans-serif;font-style:normal;font-weight:700" x="816.65" y="582.299">
      <tspan x="816.65" y="582.299">BATCH</tspan>
    </text>
    <text font-size="9.60105" style="fill: #000000;text-anchor:end;font-family:sans-serif;font-style:normal;font-weight:700" x="869.7" y="611.3"/>
  </g>
  <g>
    <rect style="fill: #d8e5e5" x="1000" y="600" width="113.3" height="74.9"/>
    <rect style="fill: none; fill-opacity:0; stroke-width: 2; stroke: #000000" x="1000" y="600" width="113.3" height="74.9"/>
    <text font-size="12.8014" style="fill: #000000;text-anchor:middle;font-family:sans-serif;font-style:normal;font-weight:700" x="1056.65" y="642.299">
      <tspan x="1056.65" y="642.299">BLOCK</tspan>
    </text>
    <text font-size="9.60105" style="fill: #000000;text-anchor:end;font-family:sans-serif;font-style:normal;font-weight:700" x="1109.7" y="671.3"/>
  </g>
  <g>
    <rect style="fill: #d8e5e5" x="980" y="580" width="113.3" height="74.9"/>
    <rect style="fill: none; fill-opacity:0; stroke-width: 2; stroke: #000000" x="980" y="580" width="113.3" height="74.9"/>
    <text font-size="12.8014" style="fill: #000000;text-anchor:middle;font-family:sans-serif;font-style:normal;font-weight:700" x="1036.65" y="622.299">
      <tspan x="1036.65" y="622.299">BLOCK</tspan>
    </text>
    <text font-size="9.60105" style="fill: #000000;text-anchor:end;font-family:sans-serif;font-style:normal;font-weight:700" x="1089.7" y="651.3"/>
  </g>
  <g>
    <rect style="fill: #d8e5e5" x="960" y="560" width="113.3" height="74.9"/>
    <rect style="fill: none; fill-opacity:0; stroke-width: 2; stroke: #000000" x="960" y="560" width="113.3" height="74.9"/>
    <text font-size="12.8014" style="fill: #000000;text-anchor:middle;font-family:sans-serif;font-style:normal;font-weight:700" x="1016.65" y="602.299">
      <tspan x="1016.65" y="602.299">BLOCK</tspan>
    </text>
    <text font-size="9.60105" style="fill: #000000;text-anchor:end;font-family:sans-serif;font-style:normal;font-weight:700" x="1069.7" y="631.3"/>
  </g>
  <g>
    <rect style="fill: #d8e5e5" x="580" y="520" width="113.3" height="74.9"/>
    <rect style="fill: none; fill-opacity:0; stroke-width: 2; stroke: #000000" x="580" y="520" width="113.3" height="74.9"/>
    <text font-size="12.8014" style="fill: #000000;text-anchor:middle;font-family:sans-serif;font-style:normal;font-weight:700" x="636.65" y="562.299">
      <tspan x="636.65" y="562.299">FILE</tspan>
    </text>
    <text font-size="9.60105" style="fill: #000000;text-anchor:end;font-family:sans-serif;font-style:normal;font-weight:700" x="689.7" y="591.3"/>
  </g>
  <g>
    <rect style="fill: #d8e5e5" x="560" y="500" width="113.3" height="74.9"/>
    <rect style="fill: none; fill-opacity:0; stroke-width: 2; stroke: #000000" x="560" y="500" width="113.3" height="74.9"/>
    <text font-size="12.8014" style="fill: #000000;text-anchor:middle;font-family:sans-serif;font-style:normal;font-weight:700" x="616.65" y="542.299">
      <tspan x="616.65" y="542.299">FILE</tspan>
    </text>
    <text font-size="9.60105" style="fill: #000000;text-anchor:end;font-family:sans-serif;font-style:normal;font-weight:700" x="669.7" y="571.3"/>
  </g>
  <g>
    <path style="fill: none; fill-opacity:0; stroke-width: 2; stroke-linejoin: round; stroke: #000000" d="M 520,530.485 A 3.80954,3.80954 0 0 0 516.19,526.675"/>
    <line style="fill: none; fill-opacity:0; stroke-width: 2; stroke-linejoin: round; stroke: #000000" x1="485" y1="526.675" x2="516.19" y2="526.675"/>
    <path style="fill: none; fill-opacity:0; stroke-width: 2; stroke-linejoin: round; stroke: #000000" d="M 520,534.987 A 2.46266,2.46266 0 0 0 522.463,537.45"/>
    <line style="fill: none; fill-opacity:0; stroke-width: 2; stroke-linejoin: round; stroke: #000000" x1="520" y1="530.485" x2="520" y2="534.987"/>
    <line style="fill: none; fill-opacity:0; stroke-width: 2; stroke-linejoin: round; stroke: #000000" x1="522.463" y1="537.45" x2="550.264" y2="537.45"/>
    <polygon style="fill: #000000" points="480,529.675 480,523.675 486,523.675 486,529.675 "/>
    <line style="fill: none; fill-opacity:0; stroke-width: 2; stroke: #000000" x1="483" y1="532.675" x2="483" y2="520.675"/>
    <polygon style="fill: #000000" points="557.764,537.45 547.764,542.45 550.264,537.45 547.764,532.45 "/>
    <polygon style="fill: none; fill-opacity:0; stroke-width: 2; stroke: #000000" points="557.764,537.45 547.764,542.45 550.264,537.45 547.764,532.45 "/>
  </g>
  <g>
    <path style="fill: none; fill-opacity:0; stroke-width: 2; stroke-linejoin: round; stroke: #000000" d="M 716.65,545.45 A 8,8 0 0 0 708.65,537.45"/>
    <line style="fill: none; fill-opacity:0; stroke-width: 2; stroke-linejoin: round; stroke: #000000" x1="678.3" y1="537.45" x2="708.65" y2="537.45"/>
    <path style="fill: none; fill-opacity:0; stroke-width: 2; stroke-linejoin: round; stroke: #000000" d="M 716.65,569.45 A 8,8 0 0 0 724.65,577.45"/>
    <line style="fill: none; fill-opacity:0; stroke-width: 2; stroke-linejoin: round; stroke: #000000" x1="716.65" y1="545.45" x2="716.65" y2="569.45"/>
    <line style="fill: none; fill-opacity:0; stroke-width: 2; stroke-linejoin: round; stroke: #000000" x1="724.65" y1="577.45" x2="750.264" y2="577.45"/>
    <polygon style="fill: #000000" points="673.3,540.45 673.3,534.45 679.3,534.45 679.3,540.45 "/>
    <line style="fill: none; fill-opacity:0; stroke-width: 2; stroke: #000000" x1="676.3" y1="543.45" x2="676.3" y2="531.45"/>
    <polygon style="fill: #000000" points="757.764,577.45 747.764,582.45 750.264,577.45 747.764,572.45 "/>
    <polygon style="fill: none; fill-opacity:0; stroke-width: 2; stroke: #000000" points="757.764,577.45 747.764,582.45 750.264,577.45 747.764,572.45 "/>
  </g>
  <g>
    <path style="fill: none; fill-opacity:0; stroke-width: 2; stroke-linejoin: round; stroke: #000000" d="M 916.65,585.45 A 8,8 0 0 0 908.65,577.45"/>
    <line style="fill: none; fill-opacity:0; stroke-width: 2; stroke-linejoin: round; stroke: #000000" x1="878.3" y1="577.45" x2="908.65" y2="577.45"/>
    <path style="fill: none; fill-opacity:0; stroke-width: 2; stroke-linejoin: round; stroke: #000000" d="M 916.65,608.175 A 8,8 0 0 0 924.65,616.175"/>
    <line style="fill: none; fill-opacity:0; stroke-width: 2; stroke-linejoin: round; stroke: #000000" x1="916.65" y1="585.45" x2="916.65" y2="608.175"/>
    <line style="fill: none; fill-opacity:0; stroke-width: 2; stroke-linejoin: round; stroke: #000000" x1="924.65" y1="616.175" x2="950.264" y2="616.175"/>
    <polygon style="fill: #000000" points="873.3,580.45 873.3,574.45 879.3,574.45 879.3,580.45 "/>
    <line style="fill: none; fill-opacity:0; stroke-width: 2; stroke: #000000" x1="876.3" y1="583.45" x2="876.3" y2="571.45"/>
    <polygon style="fill: #000000" points="957.764,616.175 947.764,621.175 950.264,616.175 947.764,611.175 "/>
    <polygon style="fill: none; fill-opacity:0; stroke-width: 2; stroke: #000000" points="957.764,616.175 947.764,621.175 950.264,616.175 947.764,611.175 "/>
  </g>
  <g>
    <rect style="fill: #ccede2" x="1380" y="540" width="129" height="83"/>
    <rect style="fill: none; fill-opacity:0; stroke-width: 2; stroke: #000000" x="1380" y="540" width="129" height="83"/>
    <text font-size="12.8014" style="fill: #000000;text-anchor:middle;font-family:sans-serif;font-style:normal;font-weight:700" x="1444.5" y="578.348">
      <tspan x="1444.5" y="578.348">BLOCK</tspan>
      <tspan x="1444.5" y="594.35">STORE</tspan>
    </text>
    <text font-size="9.60105" style="fill: #000000;text-anchor:end;font-family:sans-serif;font-style:normal;font-weight:700" x="1505.4" y="619.4"/>
  </g>
  <g>
    <rect style="fill: #c2cee4" x="1560" y="420" width="129" height="83"/>
    <rect style="fill: none; fill-opacity:0; stroke-width: 2; stroke: #000000" x="1560" y="420" width="129" height="83"/>
    <text font-size="12.8014" style="fill: #000000;text-anchor:middle;font-family:sans-serif;font-style:normal;font-weight:700" x="1624.5" y="466.349">
      <tspan x="1624.5" y="466.349">REGISTER</tspan>
    </text>
    <text font-size="9.60105" style="fill: #000000;text-anchor:end;font-family:sans-serif;font-style:normal;font-weight:700" x="1685.4" y="499.4"/>
  </g>
  <g>
    <rect style="fill: #cbdae2" x="380" y="100" width="122.55" height="88.9"/>
    <rect style="fill: none; fill-opacity:0; stroke-width: 2; stroke: #000000" x="380" y="100" width="122.55" height="88.9"/>
    <text font-size="12.8014" style="fill: #000000;text-anchor:middle;font-family:sans-serif;font-style:normal;font-weight:700" x="441.275" y="141.298">
      <tspan x="441.275" y="141.298">FSTORE</tspan>
      <tspan x="441.275" y="157.3">USER MGT</tspan>
    </text>
    <text font-size="9.60105" style="fill: #000000;text-anchor:end;font-family:sans-serif;font-style:normal;font-weight:700" x="498.95" y="185.3"/>
  </g>
  <g>
    <path style="fill: none; fill-opacity:0; stroke-width: 2; stroke-linejoin: round; stroke: #000000" d="M 613.32,421.5 A 8,8 0 0 0 605.32,429.5"/>
    <line style="fill: none; fill-opacity:0; stroke-width: 2; stroke-linejoin: round; stroke: #000000" x1="605.32" y1="495" x2="605.32" y2="429.5"/>
    <path style="fill: none; fill-opacity:0; stroke-width: 2; stroke-linejoin: round; stroke: #000000" d="M 742,421.5 A 8,8 0 0 0 750,413.5"/>
    <line style="fill: none; fill-opacity:0; stroke-width: 2; stroke-linejoin: round; stroke: #000000" x1="613.32" y1="421.5" x2="742" y2="421.5"/>
    <line style="fill: none; fill-opacity:0; stroke-width: 2; stroke-linejoin: round; stroke: #000000" x1="750" y1="413.5" x2="750" y2="352.736"/>
    <polygon style="fill: #000000" points="608.32,500 602.32,500 602.32,494 608.32,494 "/>
    <line style="fill: none; fill-opacity:0; stroke-width: 2; stroke: #000000" x1="611.32" y1="497" x2="599.32" y2="497"/>
    <polygon style="fill: #000000" points="750,345.236 755,355.236 750,352.736 745,355.236 "/>
    <polygon style="fill: none; fill-opacity:0; stroke-width: 2; stroke: #000000" points="750,345.236 755,355.236 750,352.736 745,355.236 "/>
  </g>
  <g>
    <path style="fill: none; fill-opacity:0; stroke-width: 2; stroke-linejoin: round; stroke: #000000" d="M 788.791,441.5 A 6.13062,6.13062 0 0 0 782.66,447.631"/>
    <line style="fill: none; fill-opacity:0; stroke-width: 2; stroke-linejoin: round; stroke: #000000" x1="782.66" y1="535" x2="782.66" y2="447.631"/>
    <path style="fill: none; fill-opacity:0; stroke-width: 2; stroke-linejoin: round; stroke: #000000" d="M 796.037,441.5 A 3.96312,3.96312 0 0 0 800,437.537"/>
    <line style="fill: none; fill-opacity:0; stroke-width: 2; stroke-linejoin: round; stroke: #000000" x1="788.791" y1="441.5" x2="796.037" y2="441.5"/>
    <line style="fill: none; fill-opacity:0; stroke-width: 2; stroke-linejoin: round; stroke: #000000" x1="800" y1="437.537" x2="800" y2="352.736"/>
    <polygon style="fill: #000000" points="785.66,540 779.66,540 779.66,534 785.66,534 "/>
    <line style="fill: none; fill-opacity:0; stroke-width: 2; stroke: #000000" x1="788.66" y1="537" x2="776.66" y2="537"/>
    <polygon style="fill: #000000" points="800,345.236 805,355.236 800,352.736 795,355.236 "/>
    <polygon style="fill: none; fill-opacity:0; stroke-width: 2; stroke: #000000" points="800,345.236 805,355.236 800,352.736 795,355.236 "/>
  </g>
  <g>
    <path style="fill: none; fill-opacity:0; stroke-width: 2; stroke-linejoin: round; stroke: #000000" d="M 982.66,459.5 A 8,8 0 0 0 974.66,451.5"/>
    <line style="fill: none; fill-opacity:0; stroke-width: 2; stroke-linejoin: round; stroke: #000000" x1="982.66" y1="555" x2="982.66" y2="459.5"/>
    <path style="fill: none; fill-opacity:0; stroke-width: 2; stroke-linejoin: round; stroke: #000000" d="M 850,443.5 A 8,8 0 0 0 858,451.5"/>
    <line style="fill: none; fill-opacity:0; stroke-width: 2; stroke-linejoin: round; stroke: #000000" x1="974.66" y1="451.5" x2="858" y2="451.5"/>
    <line style="fill: none; fill-opacity:0; stroke-width: 2; stroke-linejoin: round; stroke: #000000" x1="850" y1="443.5" x2="850" y2="352.736"/>
    <polygon style="fill: #000000" points="985.66,560 979.66,560 979.66,554 985.66,554 "/>
    <line style="fill: none; fill-opacity:0; stroke-width: 2; stroke: #000000" x1="988.66" y1="557" x2="976.66" y2="557"/>
    <polygon style="fill: #000000" points="850,345.236 855,355.236 850,352.736 845,355.236 "/>
    <polygon style="fill: none; fill-opacity:0; stroke-width: 2; stroke: #000000" points="850,345.236 855,355.236 850,352.736 845,355.236 "/>
  </g>
  <g>
    <path style="fill: none; fill-opacity:0; stroke-width: 2; stroke-linejoin: round; stroke: #000000" d="M 1108.65,597.45 A 8,8 0 0 0 1116.65,589.45"/>
    <line style="fill: none; fill-opacity:0; stroke-width: 2; stroke-linejoin: round; stroke: #000000" x1="1078.3" y1="597.45" x2="1108.65" y2="597.45"/>
    <path style="fill: none; fill-opacity:0; stroke-width: 2; stroke-linejoin: round; stroke: #000000" d="M 1124.65,557.45 A 8,8 0 0 0 1116.65,565.45"/>
    <line style="fill: none; fill-opacity:0; stroke-width: 2; stroke-linejoin: round; stroke: #000000" x1="1116.65" y1="589.45" x2="1116.65" y2="565.45"/>
    <line style="fill: none; fill-opacity:0; stroke-width: 2; stroke-linejoin: round; stroke: #000000" x1="1124.65" y1="557.45" x2="1150.26" y2="557.45"/>
    <polygon style="fill: #000000" points="1073.3,600.45 1073.3,594.45 1079.3,594.45 1079.3,600.45 "/>
    <line style="fill: none; fill-opacity:0; stroke-width: 2; stroke: #000000" x1="1076.3" y1="603.45" x2="1076.3" y2="591.45"/>
    <polygon style="fill: #000000" points="1157.76,557.45 1147.76,562.45 1150.26,557.45 1147.76,552.45 "/>
    <polygon style="fill: none; fill-opacity:0; stroke-width: 2; stroke: #000000" points="1157.76,557.45 1147.76,562.45 1150.26,557.45 1147.76,552.45 "/>
  </g>
  <g>
    <rect style="fill: #cbdae2" x="380" y="0" width="122.55" height="88.9"/>
    <rect style="fill: none; fill-opacity:0; stroke-width: 2; stroke: #000000" x="380" y="0" width="122.55" height="88.9"/>
    <text font-size="12.8014" style="fill: #000000;text-anchor:middle;font-family:sans-serif;font-style:normal;font-weight:700" x="441.275" y="49.299">
      <tspan x="441.275" y="49.299">BSTORE MGT</tspan>
    </text>
    <text font-size="9.60105" style="fill: #000000;text-anchor:end;font-family:sans-serif;font-style:normal;font-weight:700" x="498.95" y="85.2996"/>
  </g>
  <g>
    <rect style="fill: #cbdae2" x="340" y="220" width="127.75" height="88.9"/>
    <rect style="fill: none; fill-opacity:0; stroke-width: 2; stroke: #000000" x="340" y="220" width="127.75" height="88.9"/>
    <text font-size="12.8014" style="fill: #000000;text-anchor:middle;font-family:sans-serif;font-style:normal;font-weight:700" x="403.875" y="261.298">
      <tspan x="403.875" y="261.298">WASTE OBJ</tspan>
      <tspan x="403.875" y="277.3">COLLECTORS</tspan>
    </text>
    <text font-size="9.60105" style="fill: #000000;text-anchor:end;font-family:sans-serif;font-style:normal;font-weight:700" x="464.15" y="305.3"/>
  </g>
  <g>
    <rect style="fill: #cbdae2" x="340" y="340" width="127.75" height="88.9"/>
    <rect style="fill: none; fill-opacity:0; stroke-width: 2; stroke: #000000" x="340" y="340" width="127.75" height="88.9"/>
    <text font-size="12.8014" style="fill: #000000;text-anchor:middle;font-family:sans-serif;font-style:normal;font-weight:700" x="403.875" y="381.298">
      <tspan x="403.875" y="381.298">LOST OBJ </tspan>
      <tspan x="403.875" y="397.3">COLLECTORS</tspan>
    </text>
    <text font-size="9.60105" style="fill: #000000;text-anchor:end;font-family:sans-serif;font-style:normal;font-weight:700" x="464.15" y="425.3"/>
  </g>
  <g>
    <path style="fill: none; fill-opacity:0; stroke-width: 2; stroke-linejoin: round; stroke: #000000" d="M 575.875,384.45 A 8,8 0 0 0 583.875,376.45"/>
    <line style="fill: none; fill-opacity:0; stroke-width: 2; stroke-linejoin: round; stroke: #000000" x1="472.75" y1="384.45" x2="575.875" y2="384.45"/>
    <path style="fill: none; fill-opacity:0; stroke-width: 2; stroke-linejoin: round; stroke: #000000" d="M 591.875,291.5 A 8,8 0 0 0 583.875,299.5"/>
    <line style="fill: none; fill-opacity:0; stroke-width: 2; stroke-linejoin: round; stroke: #000000" x1="583.875" y1="376.45" x2="583.875" y2="299.5"/>
    <line style="fill: none; fill-opacity:0; stroke-width: 2; stroke-linejoin: round; stroke: #000000" x1="591.875" y1="291.5" x2="690.264" y2="291.5"/>
    <polygon style="fill: #000000" points="467.75,387.45 467.75,381.45 473.75,381.45 473.75,387.45 "/>
    <line style="fill: none; fill-opacity:0; stroke-width: 2; stroke: #000000" x1="470.75" y1="390.45" x2="470.75" y2="378.45"/>
    <polygon style="fill: #000000" points="697.764,291.5 687.764,296.5 690.264,291.5 687.764,286.5 "/>
    <polygon style="fill: none; fill-opacity:0; stroke-width: 2; stroke: #000000" points="697.764,291.5 687.764,296.5 690.264,291.5 687.764,286.5 "/>
  </g>
  <g>
    <path style="fill: none; fill-opacity:0; stroke-width: 2; stroke-linejoin: round; stroke: #000000" d="M 583.875,264.91 A 0.459619,0.459619 0 0 0 583.415,264.45"/>
    <line style="fill: none; fill-opacity:0; stroke-width: 2; stroke-linejoin: round; stroke: #000000" x1="472.75" y1="264.45" x2="583.415" y2="264.45"/>
    <path style="fill: none; fill-opacity:0; stroke-width: 2; stroke-linejoin: round; stroke: #000000" d="M 583.875,265.453 A 0.297119,0.297119 0 0 0 584.172,265.75"/>
    <line style="fill: none; fill-opacity:0; stroke-width: 2; stroke-linejoin: round; stroke: #000000" x1="583.875" y1="264.91" x2="583.875" y2="265.453"/>
    <line style="fill: none; fill-opacity:0; stroke-width: 2; stroke-linejoin: round; stroke: #000000" x1="584.172" y1="265.75" x2="690.264" y2="265.75"/>
    <polygon style="fill: #000000" points="467.75,267.45 467.75,261.45 473.75,261.45 473.75,267.45 "/>
    <line style="fill: none; fill-opacity:0; stroke-width: 2; stroke: #000000" x1="470.75" y1="270.45" x2="470.75" y2="258.45"/>
    <polygon style="fill: #000000" points="697.764,265.75 687.764,270.75 690.264,265.75 687.764,260.75 "/>
    <polygon style="fill: none; fill-opacity:0; stroke-width: 2; stroke: #000000" points="697.764,265.75 687.764,270.75 690.264,265.75 687.764,260.75 "/>
  </g>
  <g>
    <rect style="fill: #cbdae2" x="1380" y="380" width="122.55" height="88.9"/>
    <rect style="fill: none; fill-opacity:0; stroke-width: 2; stroke: #000000" x="1380" y="380" width="122.55" height="88.9"/>
    <text font-size="12.8014" style="fill: #000000;text-anchor:middle;font-family:sans-serif;font-style:normal;font-weight:700" x="1441.28" y="421.298">
      <tspan x="1441.28" y="421.298">BSTORE</tspan>
      <tspan x="1441.28" y="437.3">USER MGT</tspan>
    </text>
    <text font-size="9.60105" style="fill: #000000;text-anchor:end;font-family:sans-serif;font-style:normal;font-weight:700" x="1498.95" y="465.3"/>
  </g>
  <g>
    <path style="fill: none; fill-opacity:0; stroke-width: 2; stroke-linejoin: round; stroke: #000000" d="M 820,52.45 A 8,8 0 0 0 812,44.45"/>
    <line style="fill: none; fill-opacity:0; stroke-width: 2; stroke-linejoin: round; stroke: #000000" x1="507.55" y1="44.45" x2="812" y2="44.45"/>
    <line style="fill: none; fill-opacity:0; stroke-width: 2; stroke-linejoin: round; stroke: #000000" x1="820" y1="52.45" x2="820" y2="230.264"/>
    <polygon style="fill: #000000" points="502.55,47.45 502.55,41.45 508.55,41.45 508.55,47.45 "/>
    <line style="fill: none; fill-opacity:0; stroke-width: 2; stroke: #000000" x1="505.55" y1="50.45" x2="505.55" y2="38.45"/>
    <polygon style="fill: #000000" points="820,237.764 815,227.764 820,230.264 825,227.764 "/>
    <polygon style="fill: none; fill-opacity:0; stroke-width: 2; stroke: #000000" points="820,237.764 815,227.764 820,230.264 825,227.764 "/>
  </g>
  <g>
    <path style="fill: none; fill-opacity:0; stroke-width: 2; stroke-linejoin: round; stroke: #000000" d="M 1546.54,482.25 A 2.03786,2.03786 0 0 0 1544.5,484.288"/>
    <line style="fill: none; fill-opacity:0; stroke-width: 2; stroke-linejoin: round; stroke: #000000" x1="1550.26" y1="482.25" x2="1546.54" y2="482.25"/>
    <path style="fill: none; fill-opacity:0; stroke-width: 2; stroke-linejoin: round; stroke: #000000" d="M 1536.5,560.75 A 8,8 0 0 0 1544.5,552.75"/>
    <line style="fill: none; fill-opacity:0; stroke-width: 2; stroke-linejoin: round; stroke: #000000" x1="1544.5" y1="484.288" x2="1544.5" y2="552.75"/>
    <line style="fill: none; fill-opacity:0; stroke-width: 2; stroke-linejoin: round; stroke: #000000" x1="1536.5" y1="560.75" x2="1518.74" y2="560.75"/>
    <polygon style="fill: #000000" points="1557.76,482.25 1547.76,487.25 1550.26,482.25 1547.76,477.25 "/>
    <polygon style="fill: none; fill-opacity:0; stroke-width: 2; stroke: #000000" points="1557.76,482.25 1547.76,487.25 1550.26,482.25 1547.76,477.25 "/>
    <polygon style="fill: #000000" points="1511.24,560.75 1521.24,555.75 1518.74,560.75 1521.24,565.75 "/>
    <polygon style="fill: none; fill-opacity:0; stroke-width: 2; stroke: #000000" points="1511.24,560.75 1521.24,555.75 1518.74,560.75 1521.24,565.75 "/>
  </g>
  <g>
    <path style="fill: none; fill-opacity:0; stroke-width: 2; stroke-linejoin: round; stroke: #000000" d="M 1531.28,434.987 A 5.76292,5.76292 0 0 0 1537.04,440.75"/>
    <line style="fill: none; fill-opacity:0; stroke-width: 2; stroke-linejoin: round; stroke: #000000" x1="1550.26" y1="440.75" x2="1537.04" y2="440.75"/>
    <path style="fill: none; fill-opacity:0; stroke-width: 2; stroke-linejoin: round; stroke: #000000" d="M 1531.27,428.175 A 3.72542,3.72542 0 0 0 1527.55,424.45"/>
    <line style="fill: none; fill-opacity:0; stroke-width: 2; stroke-linejoin: round; stroke: #000000" x1="1531.28" y1="434.987" x2="1531.27" y2="428.175"/>
    <line style="fill: none; fill-opacity:0; stroke-width: 2; stroke-linejoin: round; stroke: #000000" x1="1527.55" y1="424.45" x2="1512.29" y2="424.45"/>
    <polygon style="fill: #000000" points="1557.76,440.75 1547.76,445.75 1550.26,440.75 1547.76,435.75 "/>
    <polygon style="fill: none; fill-opacity:0; stroke-width: 2; stroke: #000000" points="1557.76,440.75 1547.76,445.75 1550.26,440.75 1547.76,435.75 "/>
    <polygon style="fill: #000000" points="1504.79,424.45 1514.79,419.45 1512.29,424.45 1514.79,429.45 "/>
    <polygon style="fill: none; fill-opacity:0; stroke-width: 2; stroke: #000000" points="1504.79,424.45 1514.79,419.45 1512.29,424.45 1514.79,429.45 "/>
  </g>
  <g>
    <path style="fill: none; fill-opacity:0; stroke-width: 2; stroke-linejoin: round; stroke: #000000" d="M 740,152.45 A 8,8 0 0 0 732,144.45"/>
    <line style="fill: none; fill-opacity:0; stroke-width: 2; stroke-linejoin: round; stroke: #000000" x1="507.55" y1="144.45" x2="732" y2="144.45"/>
    <line style="fill: none; fill-opacity:0; stroke-width: 2; stroke-linejoin: round; stroke: #000000" x1="740" y1="152.45" x2="740" y2="230.264"/>
    <polygon style="fill: #000000" points="502.55,147.45 502.55,141.45 508.55,141.45 508.55,147.45 "/>
    <line style="fill: none; fill-opacity:0; stroke-width: 2; stroke: #000000" x1="505.55" y1="150.45" x2="505.55" y2="138.45"/>
    <polygon style="fill: #000000" points="740,237.764 735,227.764 740,230.264 745,227.764 "/>
    <polygon style="fill: none; fill-opacity:0; stroke-width: 2; stroke: #000000" points="740,237.764 735,227.764 740,230.264 745,227.764 "/>
  </g>
  <g>
    <rect style="fill: #ccede2" x="1340" y="740" width="129" height="83"/>
    <rect style="fill: none; fill-opacity:0; stroke-width: 2; stroke: #000000" x="1340" y="740" width="129" height="83"/>
    <text font-size="12.8014" style="fill: #000000;text-anchor:middle;font-family:sans-serif;font-style:normal;font-weight:700" x="1404.5" y="778.348">
      <tspan x="1404.5" y="778.348">BLOCK</tspan>
      <tspan x="1404.5" y="794.35">STORE</tspan>
    </text>
    <text font-size="9.60105" style="fill: #000000;text-anchor:end;font-family:sans-serif;font-style:normal;font-weight:700" x="1465.4" y="819.4"/>
  </g>
  <g>
    <rect style="fill: #c2cee4" x="960" y="220" width="160" height="80"/>
    <rect style="fill: none; fill-opacity:0; stroke-width: 2; stroke: #000000" x="960" y="220" width="160" height="80"/>
    <text font-size="12.8014" style="fill: #000000;text-anchor:middle;font-family:sans-serif;font-style:normal;font-weight:700" x="1040" y="264.849">
      <tspan x="1040" y="264.849">DBMS</tspan>
    </text>
    <text font-size="9.60105" style="fill: #000000;text-anchor:end;font-family:sans-serif;font-style:normal;font-weight:700" x="1116.4" y="296.4"/>
  </g>
  <g>
    <path style="fill: none; fill-opacity:0; stroke-width: 2; stroke-linejoin: round; stroke: #000000" d="M 922,291.5 A 8,8 0 0 0 930,283.5"/>
    <line style="fill: none; fill-opacity:0; stroke-width: 2; stroke-linejoin: round; stroke: #000000" x1="905" y1="291.5" x2="922" y2="291.5"/>
    <path style="fill: none; fill-opacity:0; stroke-width: 2; stroke-linejoin: round; stroke: #000000" d="M 937.164,260 A 7.16438,7.16438 0 0 0 930,267.164"/>
    <line style="fill: none; fill-opacity:0; stroke-width: 2; stroke-linejoin: round; stroke: #000000" x1="930" y1="283.5" x2="930" y2="267.164"/>
    <line style="fill: none; fill-opacity:0; stroke-width: 2; stroke-linejoin: round; stroke: #000000" x1="937.164" y1="260" x2="950.264" y2="260"/>
    <polygon style="fill: #000000" points="900,294.5 900,288.5 906,288.5 906,294.5 "/>
    <line style="fill: none; fill-opacity:0; stroke-width: 2; stroke: #000000" x1="903" y1="297.5" x2="903" y2="285.5"/>
    <polygon style="fill: #000000" points="957.764,260 947.764,265 950.264,260 947.764,255 "/>
    <polygon style="fill: none; fill-opacity:0; stroke-width: 2; stroke: #000000" points="957.764,260 947.764,265 950.264,260 947.764,255 "/>
  </g>
  <g>
    <rect style="fill: #d8e5e5" x="1160" y="520" width="122.3" height="74.9"/>
    <rect style="fill: none; fill-opacity:0; stroke-width: 2; stroke: #000000" x="1160" y="520" width="122.3" height="74.9"/>
    <text font-size="12.8014" style="fill: #000000;text-anchor:middle;font-family:sans-serif;font-style:normal;font-weight:700" x="1221.15" y="554.298">
      <tspan x="1221.15" y="554.298">BLOCK</tspan>
      <tspan x="1221.15" y="570.3">DISTRIBUTOR</tspan>
    </text>
    <text font-size="9.60105" style="fill: #000000;text-anchor:end;font-family:sans-serif;font-style:normal;font-weight:700" x="1278.7" y="591.3"/>
  </g>
  <g>
    <path style="fill: none; fill-opacity:0; stroke-width: 2; stroke-linejoin: round; stroke: #000000" d="M 1331.15,546.512 A 7.78701,7.78701 0 0 0 1323.36,538.725"/>
    <line style="fill: none; fill-opacity:0; stroke-width: 2; stroke-linejoin: round; stroke: #000000" x1="1287.3" y1="538.725" x2="1323.36" y2="538.725"/>
    <path style="fill: none; fill-opacity:0; stroke-width: 2; stroke-linejoin: round; stroke: #000000" d="M 1331.15,555.716 A 5.03389,5.03389 0 0 0 1336.18,560.75"/>
    <line style="fill: none; fill-opacity:0; stroke-width: 2; stroke-linejoin: round; stroke: #000000" x1="1331.15" y1="546.512" x2="1331.15" y2="555.716"/>
    <line style="fill: none; fill-opacity:0; stroke-width: 2; stroke-linejoin: round; stroke: #000000" x1="1336.18" y1="560.75" x2="1370.26" y2="560.75"/>
    <polygon style="fill: #000000" points="1282.3,541.725 1282.3,535.725 1288.3,535.725 1288.3,541.725 "/>
    <line style="fill: none; fill-opacity:0; stroke-width: 2; stroke: #000000" x1="1285.3" y1="544.725" x2="1285.3" y2="532.725"/>
    <polygon style="fill: #000000" points="1377.76,560.75 1367.76,565.75 1370.26,560.75 1367.76,555.75 "/>
    <polygon style="fill: none; fill-opacity:0; stroke-width: 2; stroke: #000000" points="1377.76,560.75 1367.76,565.75 1370.26,560.75 1367.76,555.75 "/>
  </g>
  <g>
    <path style="fill: none; fill-opacity:0; stroke-width: 2; stroke-linejoin: round; stroke: #000000" d="M 1310,568 A 8,8 0 0 0 1302,560"/>
    <line style="fill: none; fill-opacity:0; stroke-width: 2; stroke-linejoin: round; stroke: #000000" x1="1285" y1="560" x2="1302" y2="560"/>
    <path style="fill: none; fill-opacity:0; stroke-width: 2; stroke-linejoin: round; stroke: #000000" d="M 1310,774.336 A 7.16438,7.16438 0 0 0 1317.16,781.5"/>
    <line style="fill: none; fill-opacity:0; stroke-width: 2; stroke-linejoin: round; stroke: #000000" x1="1310" y1="568" x2="1310" y2="774.336"/>
    <line style="fill: none; fill-opacity:0; stroke-width: 2; stroke-linejoin: round; stroke: #000000" x1="1317.16" y1="781.5" x2="1330.26" y2="781.5"/>
    <polygon style="fill: #000000" points="1280,563 1280,557 1286,557 1286,563 "/>
    <line style="fill: none; fill-opacity:0; stroke-width: 2; stroke: #000000" x1="1283" y1="566" x2="1283" y2="554"/>
    <polygon style="fill: #000000" points="1337.76,781.5 1327.76,786.5 1330.26,781.5 1327.76,776.5 "/>
    <polygon style="fill: none; fill-opacity:0; stroke-width: 2; stroke: #000000" points="1337.76,781.5 1327.76,786.5 1330.26,781.5 1327.76,776.5 "/>
  </g>
  <g>
    <path style="fill: none; fill-opacity:0; stroke-width: 2; stroke-linejoin: round; stroke: #000000" d="M 1221.73,616.175 A 4.92323,4.92323 0 0 0 1226.65,611.252"/>
    <line style="fill: none; fill-opacity:0; stroke-width: 2; stroke-linejoin: round; stroke: #000000" x1="1078.3" y1="616.175" x2="1221.73" y2="616.175"/>
    <path style="fill: none; fill-opacity:0; stroke-width: 2; stroke-linejoin: round; stroke: #000000" d="M 1229.83,602.25 A 3.18261,3.18261 0 0 0 1226.65,605.433"/>
    <line style="fill: none; fill-opacity:0; stroke-width: 2; stroke-linejoin: round; stroke: #000000" x1="1226.65" y1="611.252" x2="1226.65" y2="605.433"/>
    <line style="fill: none; fill-opacity:0; stroke-width: 2; stroke-linejoin: round; stroke: #000000" x1="1229.83" y1="602.25" x2="1370.26" y2="602.25"/>
    <polygon style="fill: #000000" points="1073.3,619.175 1073.3,613.175 1079.3,613.175 1079.3,619.175 "/>
    <line style="fill: none; fill-opacity:0; stroke-width: 2; stroke: #000000" x1="1076.3" y1="622.175" x2="1076.3" y2="610.175"/>
    <polygon style="fill: #000000" points="1377.76,602.25 1367.76,607.25 1370.26,602.25 1367.76,597.25 "/>
    <polygon style="fill: none; fill-opacity:0; stroke-width: 2; stroke: #000000" points="1377.76,602.25 1367.76,607.25 1370.26,602.25 1367.76,597.25 "/>
  </g>
  <g>
    <rect style="fill: #c2cee4" x="1660" y="540" width="160" height="80"/>
    <rect style="fill: none; fill-opacity:0; stroke-width: 2; stroke: #000000" x="1660" y="540" width="160" height="80"/>
    <text font-size="12.8014" style="fill: #000000;text-anchor:middle;font-family:sans-serif;font-style:normal;font-weight:700" x="1740" y="576.848">
      <tspan x="1740" y="576.848">EMBED</tspan>
      <tspan x="1740" y="592.85">DBMS</tspan>
    </text>
    <text font-size="9.60105" style="fill: #000000;text-anchor:end;font-family:sans-serif;font-style:normal;font-weight:700" x="1816.4" y="616.4"/>
  </g>
  <g>
    <path style="fill: none; fill-opacity:0; stroke-width: 2; stroke-linejoin: round; stroke: #000000" d="M 1724,469.5 A 8,8 0 0 0 1716,461.5"/>
    <line style="fill: none; fill-opacity:0; stroke-width: 2; stroke-linejoin: round; stroke: #000000" x1="1724" y1="530.264" x2="1724" y2="469.5"/>
    <line style="fill: none; fill-opacity:0; stroke-width: 2; stroke-linejoin: round; stroke: #000000" x1="1716" y1="461.5" x2="1698.74" y2="461.5"/>
    <polygon style="fill: #000000" points="1724,537.764 1719,527.764 1724,530.264 1729,527.764 "/>
    <polygon style="fill: none; fill-opacity:0; stroke-width: 2; stroke: #000000" points="1724,537.764 1719,527.764 1724,530.264 1729,527.764 "/>
    <polygon style="fill: #000000" points="1691.24,461.5 1701.24,456.5 1698.74,461.5 1701.24,466.5 "/>
    <polygon style="fill: none; fill-opacity:0; stroke-width: 2; stroke: #000000" points="1691.24,461.5 1701.24,456.5 1698.74,461.5 1701.24,466.5 "/>
  </g>
  <g>
    <rect style="fill: #ccede2" x="160" y="600" width="120" height="88.9"/>
    <rect style="fill: none; fill-opacity:0; stroke-width: 2; stroke: #000000" x="160" y="600" width="120" height="88.9"/>
    <text font-size="12.8014" style="fill: #000000;text-anchor:middle;font-family:sans-serif;font-style:normal;font-weight:700" x="220" y="641.298">
      <tspan x="220" y="641.298">WEB</tspan>
      <tspan x="220" y="657.3">INTERFACE</tspan>
    </text>
    <text font-size="9.60105" style="fill: #000000;text-anchor:end;font-family:sans-serif;font-style:normal;font-weight:700" x="276.4" y="685.3"/>
  </g>
  <g>
    <rect style="fill: #ccede2" x="160" y="440" width="120" height="88.9"/>
    <rect style="fill: none; fill-opacity:0; stroke-width: 2; stroke: #000000" x="160" y="440" width="120" height="88.9"/>
    <text font-size="12.8014" style="fill: #000000;text-anchor:middle;font-family:sans-serif;font-style:normal;font-weight:700" x="220" y="481.298">
      <tspan x="220" y="481.298">NATIVE RPC</tspan>
      <tspan x="220" y="497.3">INTERFACE</tspan>
    </text>
    <text font-size="9.60105" style="fill: #000000;text-anchor:end;font-family:sans-serif;font-style:normal;font-weight:700" x="276.4" y="525.3"/>
  </g>
  <g>
    <path style="fill: none; fill-opacity:0; stroke-width: 2; stroke-linejoin: round; stroke: #000000" d="M 320,469.296 A 7.07107,7.07107 0 0 0 312.929,462.225"/>
    <line style="fill: none; fill-opacity:0; stroke-width: 2; stroke-linejoin: round; stroke: #000000" x1="285" y1="462.225" x2="312.929" y2="462.225"/>
    <path style="fill: none; fill-opacity:0; stroke-width: 2; stroke-linejoin: round; stroke: #000000" d="M 320,477.654 A 4.57107,4.57107 0 0 0 324.571,482.225"/>
    <line style="fill: none; fill-opacity:0; stroke-width: 2; stroke-linejoin: round; stroke: #000000" x1="320" y1="469.296" x2="320" y2="477.654"/>
    <line style="fill: none; fill-opacity:0; stroke-width: 2; stroke-linejoin: round; stroke: #000000" x1="324.571" y1="482.225" x2="350.264" y2="482.225"/>
    <polygon style="fill: #000000" points="280,465.225 280,459.225 286,459.225 286,465.225 "/>
    <line style="fill: none; fill-opacity:0; stroke-width: 2; stroke: #000000" x1="283" y1="468.225" x2="283" y2="456.225"/>
    <polygon style="fill: #000000" points="357.764,482.225 347.764,487.225 350.264,482.225 347.764,477.225 "/>
    <polygon style="fill: none; fill-opacity:0; stroke-width: 2; stroke: #000000" points="357.764,482.225 347.764,487.225 350.264,482.225 347.764,477.225 "/>
  </g>
  <g>
    <path style="fill: none; fill-opacity:0; stroke-width: 2; stroke-linejoin: round; stroke: #000000" d="M 312,644.45 A 8,8 0 0 0 320,636.45"/>
    <line style="fill: none; fill-opacity:0; stroke-width: 2; stroke-linejoin: round; stroke: #000000" x1="285" y1="644.45" x2="312" y2="644.45"/>
    <path style="fill: none; fill-opacity:0; stroke-width: 2; stroke-linejoin: round; stroke: #000000" d="M 328,526.675 A 8,8 0 0 0 320,534.675"/>
    <line style="fill: none; fill-opacity:0; stroke-width: 2; stroke-linejoin: round; stroke: #000000" x1="320" y1="636.45" x2="320" y2="534.675"/>
    <line style="fill: none; fill-opacity:0; stroke-width: 2; stroke-linejoin: round; stroke: #000000" x1="328" y1="526.675" x2="350.264" y2="526.675"/>
    <polygon style="fill: #000000" points="280,647.45 280,641.45 286,641.45 286,647.45 "/>
    <line style="fill: none; fill-opacity:0; stroke-width: 2; stroke: #000000" x1="283" y1="650.45" x2="283" y2="638.45"/>
    <polygon style="fill: #000000" points="357.764,526.675 347.764,531.675 350.264,526.675 347.764,521.675 "/>
    <polygon style="fill: none; fill-opacity:0; stroke-width: 2; stroke: #000000" points="357.764,526.675 347.764,531.675 350.264,526.675 347.764,521.675 "/>
  </g>
</svg>
