<?xml version="1.0" encoding="UTF-8" standalone="no"?>
<!DOCTYPE svg PUBLIC "-//W3C//DTD SVG 1.0//EN" "http://www.w3.org/TR/2001/PR-SVG-20010719/DTD/svg10.dtd">
<svg width="58cm" height="31cm" viewBox="379 159 1154 609" xmlns="http://www.w3.org/2000/svg" xmlns:xlink="http://www.w3.org/1999/xlink">
  <g>
    <rect style="fill: #ccede2" x="840" y="420" width="180" height="120"/>
    <rect style="fill: none; fill-opacity:0; stroke-width: 2; stroke: #000000" x="840" y="420" width="180" height="120"/>
    <text font-size="12.8014" style="fill: #000000;text-anchor:middle;font-family:sans-serif;font-style:normal;font-weight:700" x="930" y="484.849">
      <tspan x="930" y="484.849">FILE STORE</tspan>
    </text>
    <text font-size="9.60105" style="fill: #000000;text-anchor:end;font-family:sans-serif;font-style:normal;font-weight:700" x="1016.4" y="536.4"/>
  </g>
  <g>
    <rect style="fill: #cbdae2" x="1340" y="560" width="151.375" height="86.6"/>
    <rect style="fill: none; fill-opacity:0; stroke-width: 2; stroke: #000000" x="1340" y="560" width="151.375" height="86.6"/>
    <text font-size="12.8014" style="fill: #000000;text-anchor:middle;font-family:sans-serif;font-style:normal;font-weight:700" x="1415.69" y="608.149">
      <tspan x="1415.69" y="608.149">BLOCK STORE</tspan>
    </text>
    <text font-size="9.60105" style="fill: #000000;text-anchor:end;font-family:sans-serif;font-style:normal;font-weight:700" x="1487.77" y="643"/>
  </g>
  <g>
    <rect style="fill: #d8e5e5" x="620" y="380" width="140" height="100"/>
    <rect style="fill: none; fill-opacity:0; stroke-width: 2; stroke: #000000" x="620" y="380" width="140" height="100"/>
    <text font-size="12.8014" style="fill: #000000;text-anchor:middle;font-family:sans-serif;font-style:normal;font-weight:700" x="690" y="434.849">
      <tspan x="690" y="434.849">WEB TRANS</tspan>
    </text>
    <text font-size="9.60105" style="fill: #000000;text-anchor:end;font-family:sans-serif;font-style:normal;font-weight:700" x="756.4" y="476.4"/>
  </g>
  <g>
    <rect style="fill: #cbdae2" x="1360" y="460" width="151.375" height="86.6"/>
    <rect style="fill: none; fill-opacity:0; stroke-width: 2; stroke: #000000" x="1360" y="460" width="151.375" height="86.6"/>
    <text font-size="12.8014" style="fill: #000000;text-anchor:middle;font-family:sans-serif;font-style:normal;font-weight:700" x="1435.69" y="508.149">
      <tspan x="1435.69" y="508.149">BLOCK STORE</tspan>
    </text>
    <text font-size="9.60105" style="fill: #000000;text-anchor:end;font-family:sans-serif;font-style:normal;font-weight:700" x="1507.77" y="543"/>
  </g>
  <g>
    <rect style="fill: #cbdae2" x="1380" y="360" width="151.375" height="86.6"/>
    <rect style="fill: none; fill-opacity:0; stroke-width: 2; stroke: #000000" x="1380" y="360" width="151.375" height="86.6"/>
    <text font-size="12.8014" style="fill: #000000;text-anchor:middle;font-family:sans-serif;font-style:normal;font-weight:700" x="1455.69" y="408.149">
      <tspan x="1455.69" y="408.149">BLOCK STORE</tspan>
    </text>
    <text font-size="9.60105" style="fill: #000000;text-anchor:end;font-family:sans-serif;font-style:normal;font-weight:700" x="1527.77" y="443"/>
  </g>
  <g>
    <path style="fill: none; fill-opacity:0; stroke-width: 2; stroke-linejoin: round; stroke: #000000" d="M 800,438 A 8,8 0 0 0 792,430"/>
    <line style="fill: none; fill-opacity:0; stroke-width: 2; stroke-linejoin: round; stroke: #000000" x1="765" y1="430" x2="792" y2="430"/>
    <path style="fill: none; fill-opacity:0; stroke-width: 2; stroke-linejoin: round; stroke: #000000" d="M 800,472 A 8,8 0 0 0 808,480"/>
    <line style="fill: none; fill-opacity:0; stroke-width: 2; stroke-linejoin: round; stroke: #000000" x1="800" y1="438" x2="800" y2="472"/>
    <line style="fill: none; fill-opacity:0; stroke-width: 2; stroke-linejoin: round; stroke: #000000" x1="808" y1="480" x2="830.264" y2="480"/>
    <polygon style="fill: #000000" points="760,433 760,427 766,427 766,433 "/>
    <line style="fill: none; fill-opacity:0; stroke-width: 2; stroke: #000000" x1="763" y1="436" x2="763" y2="424"/>
    <polygon style="fill: #000000" points="837.764,480 827.764,485 830.264,480 827.764,475 "/>
    <polygon style="fill: none; fill-opacity:0; stroke-width: 2; stroke: #000000" points="837.764,480 827.764,485 830.264,480 827.764,475 "/>
  </g>
  <g>
    <rect style="fill: #cbdae2" x="1280" y="680" width="151.375" height="86.6"/>
    <rect style="fill: none; fill-opacity:0; stroke-width: 2; stroke: #000000" x="1280" y="680" width="151.375" height="86.6"/>
    <text font-size="12.8014" style="fill: #000000;text-anchor:middle;font-family:sans-serif;font-style:normal;font-weight:700" x="1355.69" y="728.149">
      <tspan x="1355.69" y="728.149">BLOCK STORE</tspan>
    </text>
    <text font-size="9.60105" style="fill: #000000;text-anchor:end;font-family:sans-serif;font-style:normal;font-weight:700" x="1427.77" y="763"/>
  </g>
  <g>
    <path style="fill: none; fill-opacity:0; stroke-width: 2; stroke-linejoin: round; stroke: #000000" d="M 1190,476 A 8,8 0 0 0 1182,468"/>
    <line style="fill: none; fill-opacity:0; stroke-width: 2; stroke-linejoin: round; stroke: #000000" x1="1025" y1="468" x2="1182" y2="468"/>
    <path style="fill: none; fill-opacity:0; stroke-width: 2; stroke-linejoin: round; stroke: #000000" d="M 1190,495.3 A 8,8 0 0 0 1198,503.3"/>
    <line style="fill: none; fill-opacity:0; stroke-width: 2; stroke-linejoin: round; stroke: #000000" x1="1190" y1="476" x2="1190" y2="495.3"/>
    <line style="fill: none; fill-opacity:0; stroke-width: 2; stroke-linejoin: round; stroke: #000000" x1="1198" y1="503.3" x2="1350.26" y2="503.3"/>
    <polygon style="fill: #000000" points="1020,471 1020,465 1026,465 1026,471 "/>
    <line style="fill: none; fill-opacity:0; stroke-width: 2; stroke: #000000" x1="1023" y1="474" x2="1023" y2="462"/>
    <polygon style="fill: #000000" points="1357.76,503.3 1347.76,508.3 1350.26,503.3 1347.76,498.3 "/>
    <polygon style="fill: none; fill-opacity:0; stroke-width: 2; stroke: #000000" points="1357.76,503.3 1347.76,508.3 1350.26,503.3 1347.76,498.3 "/>
  </g>
  <g>
    <path style="fill: none; fill-opacity:0; stroke-width: 2; stroke-linejoin: round; stroke: #000000" d="M 1180,500 A 8,8 0 0 0 1172,492"/>
    <line style="fill: none; fill-opacity:0; stroke-width: 2; stroke-linejoin: round; stroke: #000000" x1="1025" y1="492" x2="1172" y2="492"/>
    <path style="fill: none; fill-opacity:0; stroke-width: 2; stroke-linejoin: round; stroke: #000000" d="M 1180,573.65 A 8,8 0 0 0 1188,581.65"/>
    <line style="fill: none; fill-opacity:0; stroke-width: 2; stroke-linejoin: round; stroke: #000000" x1="1180" y1="500" x2="1180" y2="573.65"/>
    <line style="fill: none; fill-opacity:0; stroke-width: 2; stroke-linejoin: round; stroke: #000000" x1="1188" y1="581.65" x2="1330.26" y2="581.65"/>
    <polygon style="fill: #000000" points="1020,495 1020,489 1026,489 1026,495 "/>
    <line style="fill: none; fill-opacity:0; stroke-width: 2; stroke: #000000" x1="1023" y1="498" x2="1023" y2="486"/>
    <polygon style="fill: #000000" points="1337.76,581.65 1327.76,586.65 1330.26,581.65 1327.76,576.65 "/>
    <polygon style="fill: none; fill-opacity:0; stroke-width: 2; stroke: #000000" points="1337.76,581.65 1327.76,586.65 1330.26,581.65 1327.76,576.65 "/>
  </g>
  <g>
    <path style="fill: none; fill-opacity:0; stroke-width: 2; stroke-linejoin: round; stroke: #000000" d="M 1150,524 A 8,8 0 0 0 1142,516"/>
    <line style="fill: none; fill-opacity:0; stroke-width: 2; stroke-linejoin: round; stroke: #000000" x1="1025" y1="516" x2="1142" y2="516"/>
    <path style="fill: none; fill-opacity:0; stroke-width: 2; stroke-linejoin: round; stroke: #000000" d="M 1150,693.65 A 8,8 0 0 0 1158,701.65"/>
    <line style="fill: none; fill-opacity:0; stroke-width: 2; stroke-linejoin: round; stroke: #000000" x1="1150" y1="524" x2="1150" y2="693.65"/>
    <line style="fill: none; fill-opacity:0; stroke-width: 2; stroke-linejoin: round; stroke: #000000" x1="1158" y1="701.65" x2="1270.26" y2="701.65"/>
    <polygon style="fill: #000000" points="1020,519 1020,513 1026,513 1026,519 "/>
    <line style="fill: none; fill-opacity:0; stroke-width: 2; stroke: #000000" x1="1023" y1="522" x2="1023" y2="510"/>
    <polygon style="fill: #000000" points="1277.76,701.65 1267.76,706.65 1270.26,701.65 1267.76,696.65 "/>
    <polygon style="fill: none; fill-opacity:0; stroke-width: 2; stroke: #000000" points="1277.76,701.65 1267.76,706.65 1270.26,701.65 1267.76,696.65 "/>
  </g>
  <g>
    <path style="fill: none; fill-opacity:0; stroke-width: 2; stroke-linejoin: round; stroke: #000000" d="M 1192,444 A 8,8 0 0 0 1200,436"/>
    <line style="fill: none; fill-opacity:0; stroke-width: 2; stroke-linejoin: round; stroke: #000000" x1="1025" y1="444" x2="1192" y2="444"/>
    <path style="fill: none; fill-opacity:0; stroke-width: 2; stroke-linejoin: round; stroke: #000000" d="M 1208,403.3 A 8,8 0 0 0 1200,411.3"/>
    <line style="fill: none; fill-opacity:0; stroke-width: 2; stroke-linejoin: round; stroke: #000000" x1="1200" y1="436" x2="1200" y2="411.3"/>
    <line style="fill: none; fill-opacity:0; stroke-width: 2; stroke-linejoin: round; stroke: #000000" x1="1208" y1="403.3" x2="1370.26" y2="403.3"/>
    <polygon style="fill: #000000" points="1020,447 1020,441 1026,441 1026,447 "/>
    <line style="fill: none; fill-opacity:0; stroke-width: 2; stroke: #000000" x1="1023" y1="450" x2="1023" y2="438"/>
    <polygon style="fill: #000000" points="1377.76,403.3 1367.76,408.3 1370.26,403.3 1367.76,398.3 "/>
    <polygon style="fill: none; fill-opacity:0; stroke-width: 2; stroke: #000000" points="1377.76,403.3 1367.76,408.3 1370.26,403.3 1367.76,398.3 "/>
  </g>
  <g>
    <rect style="fill: #dbe6eb" x="1000" y="280" width="140" height="100"/>
    <rect style="fill: none; fill-opacity:0; stroke-width: 2; stroke: #000000" x="1000" y="280" width="140" height="100"/>
    <text font-size="12.8014" style="fill: #000000;text-anchor:middle;font-family:sans-serif;font-style:normal;font-weight:700" x="1070" y="334.849">
      <tspan x="1070" y="334.849">REGISTER</tspan>
    </text>
    <text font-size="9.60105" style="fill: #000000;text-anchor:end;font-family:sans-serif;font-style:normal;font-weight:700" x="1136.4" y="376.4"/>
  </g>
  <g>
    <rect style="fill: #ccede2" x="780" y="160" width="180" height="120"/>
    <rect style="fill: none; fill-opacity:0; stroke-width: 2; stroke: #000000" x="780" y="160" width="180" height="120"/>
    <text font-size="12.8014" style="fill: #000000;text-anchor:middle;font-family:sans-serif;font-style:normal;font-weight:700" x="870" y="224.849">
      <tspan x="870" y="224.849">FILE STORE</tspan>
    </text>
    <text font-size="9.60105" style="fill: #000000;text-anchor:end;font-family:sans-serif;font-style:normal;font-weight:700" x="956.4" y="276.4"/>
  </g>
  <g>
    <path style="fill: none; fill-opacity:0; stroke-width: 2; stroke-linejoin: round; stroke: #000000" d="M 900,322 A 8,8 0 0 0 908,330"/>
    <line style="fill: none; fill-opacity:0; stroke-width: 2; stroke-linejoin: round; stroke: #000000" x1="900" y1="285" x2="900" y2="322"/>
    <line style="fill: none; fill-opacity:0; stroke-width: 2; stroke-linejoin: round; stroke: #000000" x1="908" y1="330" x2="990.264" y2="330"/>
    <polygon style="fill: #000000" points="897,280 903,280 903,286 897,286 "/>
    <line style="fill: none; fill-opacity:0; stroke-width: 2; stroke: #000000" x1="894" y1="283" x2="906" y2="283"/>
    <polygon style="fill: #000000" points="997.764,330 987.764,335 990.264,330 987.764,325 "/>
    <polygon style="fill: none; fill-opacity:0; stroke-width: 2; stroke: #000000" points="997.764,330 987.764,335 990.264,330 987.764,325 "/>
  </g>
  <g>
    <path style="fill: none; fill-opacity:0; stroke-width: 2; stroke-linejoin: round; stroke: #000000" d="M 884,355 A 8,8 0 0 0 876,363"/>
    <line style="fill: none; fill-opacity:0; stroke-width: 2; stroke-linejoin: round; stroke: #000000" x1="876" y1="415" x2="876" y2="363"/>
    <line style="fill: none; fill-opacity:0; stroke-width: 2; stroke-linejoin: round; stroke: #000000" x1="884" y1="355" x2="990.264" y2="355"/>
    <polygon style="fill: #000000" points="879,420 873,420 873,414 879,414 "/>
    <line style="fill: none; fill-opacity:0; stroke-width: 2; stroke: #000000" x1="882" y1="417" x2="870" y2="417"/>
    <polygon style="fill: #000000" points="997.764,355 987.764,360 990.264,355 987.764,350 "/>
    <polygon style="fill: none; fill-opacity:0; stroke-width: 2; stroke: #000000" points="997.764,355 987.764,360 990.264,355 987.764,350 "/>
  </g>
  <g>
    <path style="fill: none; fill-opacity:0; stroke-width: 2; stroke-linejoin: round; stroke: #000000" d="M 1170,192 A 8,8 0 0 0 1162,184"/>
    <line style="fill: none; fill-opacity:0; stroke-width: 2; stroke-linejoin: round; stroke: #000000" x1="965" y1="184" x2="1162" y2="184"/>
    <path style="fill: none; fill-opacity:0; stroke-width: 2; stroke-linejoin: round; stroke: #000000" d="M 1170,373.65 A 8,8 0 0 0 1178,381.65"/>
    <line style="fill: none; fill-opacity:0; stroke-width: 2; stroke-linejoin: round; stroke: #000000" x1="1170" y1="192" x2="1170" y2="373.65"/>
    <line style="fill: none; fill-opacity:0; stroke-width: 2; stroke-linejoin: round; stroke: #000000" x1="1178" y1="381.65" x2="1370.26" y2="381.65"/>
    <polygon style="fill: #000000" points="960,187 960,181 966,181 966,187 "/>
    <line style="fill: none; fill-opacity:0; stroke-width: 2; stroke: #000000" x1="963" y1="190" x2="963" y2="178"/>
    <polygon style="fill: #000000" points="1377.76,381.65 1367.76,386.65 1370.26,381.65 1367.76,376.65 "/>
    <polygon style="fill: none; fill-opacity:0; stroke-width: 2; stroke: #000000" points="1377.76,381.65 1367.76,386.65 1370.26,381.65 1367.76,376.65 "/>
  </g>
  <g>
    <path style="fill: none; fill-opacity:0; stroke-width: 2; stroke-linejoin: round; stroke: #000000" d="M 1160,216 A 8,8 0 0 0 1152,208"/>
    <line style="fill: none; fill-opacity:0; stroke-width: 2; stroke-linejoin: round; stroke: #000000" x1="965" y1="208" x2="1152" y2="208"/>
    <path style="fill: none; fill-opacity:0; stroke-width: 2; stroke-linejoin: round; stroke: #000000" d="M 1160,473.65 A 8,8 0 0 0 1168,481.65"/>
    <line style="fill: none; fill-opacity:0; stroke-width: 2; stroke-linejoin: round; stroke: #000000" x1="1160" y1="216" x2="1160" y2="473.65"/>
    <line style="fill: none; fill-opacity:0; stroke-width: 2; stroke-linejoin: round; stroke: #000000" x1="1168" y1="481.65" x2="1350.26" y2="481.65"/>
    <polygon style="fill: #000000" points="960,211 960,205 966,205 966,211 "/>
    <line style="fill: none; fill-opacity:0; stroke-width: 2; stroke: #000000" x1="963" y1="214" x2="963" y2="202"/>
    <polygon style="fill: #000000" points="1357.76,481.65 1347.76,486.65 1350.26,481.65 1347.76,476.65 "/>
    <polygon style="fill: none; fill-opacity:0; stroke-width: 2; stroke: #000000" points="1357.76,481.65 1347.76,486.65 1350.26,481.65 1347.76,476.65 "/>
  </g>
  <g>
    <rect style="fill: #d8e5e5" x="600" y="180" width="140" height="100"/>
    <rect style="fill: none; fill-opacity:0; stroke-width: 2; stroke: #000000" x="600" y="180" width="140" height="100"/>
    <text font-size="12.8014" style="fill: #000000;text-anchor:middle;font-family:sans-serif;font-style:normal;font-weight:700" x="670" y="234.849">
      <tspan x="670" y="234.849">WEB TRANS</tspan>
    </text>
    <text font-size="9.60105" style="fill: #000000;text-anchor:end;font-family:sans-serif;font-style:normal;font-weight:700" x="736.4" y="276.4"/>
  </g>
  <g>
    <path style="fill: none; fill-opacity:0; stroke-width: 2; stroke-linejoin: round; stroke: #000000" d="M 756.464,230 A 3.53553,3.53553 0 0 0 760,226.464"/>
    <line style="fill: none; fill-opacity:0; stroke-width: 2; stroke-linejoin: round; stroke: #000000" x1="745" y1="230" x2="756.464" y2="230"/>
    <path style="fill: none; fill-opacity:0; stroke-width: 2; stroke-linejoin: round; stroke: #000000" d="M 762.286,220 A 2.28553,2.28553 0 0 0 760,222.286"/>
    <line style="fill: none; fill-opacity:0; stroke-width: 2; stroke-linejoin: round; stroke: #000000" x1="760" y1="226.464" x2="760" y2="222.286"/>
    <line style="fill: none; fill-opacity:0; stroke-width: 2; stroke-linejoin: round; stroke: #000000" x1="762.286" y1="220" x2="770.264" y2="220"/>
    <polygon style="fill: #000000" points="740,233 740,227 746,227 746,233 "/>
    <line style="fill: none; fill-opacity:0; stroke-width: 2; stroke: #000000" x1="743" y1="236" x2="743" y2="224"/>
    <polygon style="fill: #000000" points="777.764,220 767.764,225 770.264,220 767.764,215 "/>
    <polygon style="fill: none; fill-opacity:0; stroke-width: 2; stroke: #000000" points="777.764,220 767.764,225 770.264,220 767.764,215 "/>
  </g>
  <g>
    <rect style="fill: #b9c1e0" x="380" y="240" width="140" height="100"/>
    <rect style="fill: none; fill-opacity:0; stroke-width: 2; stroke: #000000" x="380" y="240" width="140" height="100"/>
    <text font-size="12.8014" style="fill: #000000;text-anchor:middle;font-family:sans-serif;font-style:normal;font-weight:700" x="450" y="294.849">
      <tspan x="450" y="294.849">WEB CLIENT</tspan>
    </text>
    <text font-size="9.60105" style="fill: #000000;text-anchor:end;font-family:sans-serif;font-style:normal;font-weight:700" x="516.4" y="336.4"/>
  </g>
  <g>
    <rect style="fill: #b9c1e0" x="400" y="480" width="140" height="100"/>
    <rect style="fill: none; fill-opacity:0; stroke-width: 2; stroke: #000000" x="400" y="480" width="140" height="100"/>
    <text font-size="12.8014" style="fill: #000000;text-anchor:middle;font-family:sans-serif;font-style:normal;font-weight:700" x="470" y="534.849">
      <tspan x="470" y="534.849">NATIVE  CLIENT</tspan>
    </text>
    <text font-size="9.60105" style="fill: #000000;text-anchor:end;font-family:sans-serif;font-style:normal;font-weight:700" x="536.4" y="576.4"/>
  </g>
  <g>
    <path style="fill: none; fill-opacity:0; stroke-width: 2; stroke-linejoin: round; stroke: #000000" d="M 552,290 A 8,8 0 0 0 560,282"/>
    <line style="fill: none; fill-opacity:0; stroke-width: 2; stroke-linejoin: round; stroke: #000000" x1="525" y1="290" x2="552" y2="290"/>
    <path style="fill: none; fill-opacity:0; stroke-width: 2; stroke-linejoin: round; stroke: #000000" d="M 568,230 A 8,8 0 0 0 560,238"/>
    <line style="fill: none; fill-opacity:0; stroke-width: 2; stroke-linejoin: round; stroke: #000000" x1="560" y1="282" x2="560" y2="238"/>
    <line style="fill: none; fill-opacity:0; stroke-width: 2; stroke-linejoin: round; stroke: #000000" x1="568" y1="230" x2="590.264" y2="230"/>
    <polygon style="fill: #000000" points="520,293 520,287 526,287 526,293 "/>
    <line style="fill: none; fill-opacity:0; stroke-width: 2; stroke: #000000" x1="523" y1="296" x2="523" y2="284"/>
    <polygon style="fill: #000000" points="597.764,230 587.764,235 590.264,230 587.764,225 "/>
    <polygon style="fill: none; fill-opacity:0; stroke-width: 2; stroke: #000000" points="597.764,230 587.764,235 590.264,230 587.764,225 "/>
  </g>
  <g>
    <path style="fill: none; fill-opacity:0; stroke-width: 2; stroke-linejoin: round; stroke: #000000" d="M 682.929,530 A 7.07107,7.07107 0 0 0 690,522.929"/>
    <line style="fill: none; fill-opacity:0; stroke-width: 2; stroke-linejoin: round; stroke: #000000" x1="545" y1="530" x2="682.929" y2="530"/>
    <path style="fill: none; fill-opacity:0; stroke-width: 2; stroke-linejoin: round; stroke: #000000" d="M 694.571,510 A 4.57107,4.57107 0 0 0 690,514.571"/>
    <line style="fill: none; fill-opacity:0; stroke-width: 2; stroke-linejoin: round; stroke: #000000" x1="690" y1="522.929" x2="690" y2="514.571"/>
    <line style="fill: none; fill-opacity:0; stroke-width: 2; stroke-linejoin: round; stroke: #000000" x1="694.571" y1="510" x2="830.264" y2="510"/>
    <polygon style="fill: #000000" points="540,533 540,527 546,527 546,533 "/>
    <line style="fill: none; fill-opacity:0; stroke-width: 2; stroke: #000000" x1="543" y1="536" x2="543" y2="524"/>
    <polygon style="fill: #000000" points="837.764,510 827.764,515 830.264,510 827.764,505 "/>
    <polygon style="fill: none; fill-opacity:0; stroke-width: 2; stroke: #000000" points="837.764,510 827.764,515 830.264,510 827.764,505 "/>
  </g>
</svg>
