<?xml version="1.0" encoding="UTF-8" standalone="no"?>
<!DOCTYPE svg PUBLIC "-//W3C//DTD SVG 1.0//EN" "http://www.w3.org/TR/2001/PR-SVG-20010719/DTD/svg10.dtd">
<svg width="41cm" height="23cm" viewBox="179 179 814 449" xmlns="http://www.w3.org/2000/svg" xmlns:xlink="http://www.w3.org/1999/xlink">
  <g>
    <rect style="fill: #ccede2" x="378" y="353" width="180" height="100"/>
    <rect style="fill: none; fill-opacity:0; stroke-width: 2; stroke: #000000" x="378" y="353" width="180" height="100"/>
    <text font-size="12.8016" style="fill: #000000;text-anchor:middle;font-family:sans-serif;font-style:normal;font-weight:700" x="468" y="407.849">
      <tspan x="468" y="407.849">FILE STORE</tspan>
    </text>
    <text font-size="9.6012" style="fill: #000000;text-anchor:end;font-family:sans-serif;font-style:normal;font-weight:700" x="554.4" y="449.4"/>
  </g>
  <g>
    <rect style="fill: #cbdae2" x="800" y="440" width="151.375" height="86.6"/>
    <rect style="fill: none; fill-opacity:0; stroke-width: 2; stroke: #000000" x="800" y="440" width="151.375" height="86.6"/>
    <text font-size="12.8016" style="fill: #000000;text-anchor:middle;font-family:sans-serif;font-style:normal;font-weight:700" x="875.688" y="488.149">
      <tspan x="875.688" y="488.149">BLOCK STORE</tspan>
    </text>
    <text font-size="9.6012" style="fill: #000000;text-anchor:end;font-family:sans-serif;font-style:normal;font-weight:700" x="947.775" y="523"/>
  </g>
  <g>
    <rect style="fill: #ccede2" x="180" y="200" width="140" height="100"/>
    <rect style="fill: none; fill-opacity:0; stroke-width: 2; stroke: #000000" x="180" y="200" width="140" height="100"/>
    <text font-size="12.8016" style="fill: #000000;text-anchor:middle;font-family:sans-serif;font-style:normal;font-weight:700" x="250" y="254.849">
      <tspan x="250" y="254.849">WEB TRANS</tspan>
    </text>
    <text font-size="9.6012" style="fill: #000000;text-anchor:end;font-family:sans-serif;font-style:normal;font-weight:700" x="316.4" y="296.4"/>
  </g>
  <g>
    <rect style="fill: #cbdae2" x="840" y="340" width="151.375" height="86.6"/>
    <rect style="fill: none; fill-opacity:0; stroke-width: 2; stroke: #000000" x="840" y="340" width="151.375" height="86.6"/>
    <text font-size="12.8016" style="fill: #000000;text-anchor:middle;font-family:sans-serif;font-style:normal;font-weight:700" x="915.688" y="388.149">
      <tspan x="915.688" y="388.149">BLOCK STORE</tspan>
    </text>
    <text font-size="9.6012" style="fill: #000000;text-anchor:end;font-family:sans-serif;font-style:normal;font-weight:700" x="987.775" y="423"/>
  </g>
  <g>
    <rect style="fill: #cbdae2" x="760" y="240" width="151.375" height="86.6"/>
    <rect style="fill: none; fill-opacity:0; stroke-width: 2; stroke: #000000" x="760" y="240" width="151.375" height="86.6"/>
    <text font-size="12.8016" style="fill: #000000;text-anchor:middle;font-family:sans-serif;font-style:normal;font-weight:700" x="835.688" y="288.149">
      <tspan x="835.688" y="288.149">BLOCK STORE</tspan>
    </text>
    <text font-size="9.6012" style="fill: #000000;text-anchor:end;font-family:sans-serif;font-style:normal;font-weight:700" x="907.775" y="323"/>
  </g>
  <g>
    <path style="fill: none; fill-opacity:0; stroke-width: 2; stroke-linejoin: round; stroke: #000000" d="M 349,258 A 8,8 0 0 0 341,250"/>
    <line style="fill: none; fill-opacity:0; stroke-width: 2; stroke-linejoin: round; stroke: #000000" x1="325" y1="250" x2="341" y2="250"/>
    <path style="fill: none; fill-opacity:0; stroke-width: 2; stroke-linejoin: round; stroke: #000000" d="M 349,396.189 A 6.81083,6.81083 0 0 0 355.811,403"/>
    <line style="fill: none; fill-opacity:0; stroke-width: 2; stroke-linejoin: round; stroke: #000000" x1="349" y1="258" x2="349" y2="396.189"/>
    <line style="fill: none; fill-opacity:0; stroke-width: 2; stroke-linejoin: round; stroke: #000000" x1="355.811" y1="403" x2="368.264" y2="403"/>
    <polygon style="fill: #000000" points="320,253 320,247 326,247 326,253 "/>
    <line style="fill: none; fill-opacity:0; stroke-width: 2; stroke: #000000" x1="323" y1="256" x2="323" y2="244"/>
    <polygon style="fill: #000000" points="375.764,403 365.764,408 368.264,403 365.764,398 "/>
    <polygon style="fill: none; fill-opacity:0; stroke-width: 2; stroke: #000000" points="375.764,403 365.764,408 368.264,403 365.764,398 "/>
  </g>
  <g>
    <rect style="fill: #cbdae2" x="760" y="540" width="151.375" height="86.6"/>
    <rect style="fill: none; fill-opacity:0; stroke-width: 2; stroke: #000000" x="760" y="540" width="151.375" height="86.6"/>
    <text font-size="12.8016" style="fill: #000000;text-anchor:middle;font-family:sans-serif;font-style:normal;font-weight:700" x="835.688" y="588.149">
      <tspan x="835.688" y="588.149">BLOCK STORE</tspan>
    </text>
    <text font-size="9.6012" style="fill: #000000;text-anchor:end;font-family:sans-serif;font-style:normal;font-weight:700" x="907.775" y="623"/>
  </g>
  <g>
    <path style="fill: none; fill-opacity:0; stroke-width: 2; stroke-linejoin: round; stroke: #000000" d="M 695.571,393 A 3.42947,3.42947 0 0 0 699,389.571"/>
    <line style="fill: none; fill-opacity:0; stroke-width: 2; stroke-linejoin: round; stroke: #000000" x1="563" y1="393" x2="695.571" y2="393"/>
    <path style="fill: none; fill-opacity:0; stroke-width: 2; stroke-linejoin: round; stroke: #000000" d="M 701.217,383.3 A 2.21697,2.21697 0 0 0 699,385.517"/>
    <line style="fill: none; fill-opacity:0; stroke-width: 2; stroke-linejoin: round; stroke: #000000" x1="699" y1="389.571" x2="699" y2="385.517"/>
    <line style="fill: none; fill-opacity:0; stroke-width: 2; stroke-linejoin: round; stroke: #000000" x1="701.217" y1="383.3" x2="830.264" y2="383.3"/>
    <polygon style="fill: #000000" points="558,396 558,390 564,390 564,396 "/>
    <line style="fill: none; fill-opacity:0; stroke-width: 2; stroke: #000000" x1="561" y1="399" x2="561" y2="387"/>
    <polygon style="fill: #000000" points="837.764,383.3 827.764,388.3 830.264,383.3 827.764,378.3 "/>
    <polygon style="fill: none; fill-opacity:0; stroke-width: 2; stroke: #000000" points="837.764,383.3 827.764,388.3 830.264,383.3 827.764,378.3 "/>
  </g>
  <g>
    <path style="fill: none; fill-opacity:0; stroke-width: 2; stroke-linejoin: round; stroke: #000000" d="M 679,421 A 8,8 0 0 0 671,413"/>
    <line style="fill: none; fill-opacity:0; stroke-width: 2; stroke-linejoin: round; stroke: #000000" x1="563" y1="413" x2="671" y2="413"/>
    <path style="fill: none; fill-opacity:0; stroke-width: 2; stroke-linejoin: round; stroke: #000000" d="M 679,453.65 A 8,8 0 0 0 687,461.65"/>
    <line style="fill: none; fill-opacity:0; stroke-width: 2; stroke-linejoin: round; stroke: #000000" x1="679" y1="421" x2="679" y2="453.65"/>
    <line style="fill: none; fill-opacity:0; stroke-width: 2; stroke-linejoin: round; stroke: #000000" x1="687" y1="461.65" x2="790.264" y2="461.65"/>
    <polygon style="fill: #000000" points="558,416 558,410 564,410 564,416 "/>
    <line style="fill: none; fill-opacity:0; stroke-width: 2; stroke: #000000" x1="561" y1="419" x2="561" y2="407"/>
    <polygon style="fill: #000000" points="797.764,461.65 787.764,466.65 790.264,461.65 787.764,456.65 "/>
    <polygon style="fill: none; fill-opacity:0; stroke-width: 2; stroke: #000000" points="797.764,461.65 787.764,466.65 790.264,461.65 787.764,456.65 "/>
  </g>
  <g>
    <path style="fill: none; fill-opacity:0; stroke-width: 2; stroke-linejoin: round; stroke: #000000" d="M 659,441 A 8,8 0 0 0 651,433"/>
    <line style="fill: none; fill-opacity:0; stroke-width: 2; stroke-linejoin: round; stroke: #000000" x1="563" y1="433" x2="651" y2="433"/>
    <path style="fill: none; fill-opacity:0; stroke-width: 2; stroke-linejoin: round; stroke: #000000" d="M 659,553.65 A 8,8 0 0 0 667,561.65"/>
    <line style="fill: none; fill-opacity:0; stroke-width: 2; stroke-linejoin: round; stroke: #000000" x1="659" y1="441" x2="659" y2="553.65"/>
    <line style="fill: none; fill-opacity:0; stroke-width: 2; stroke-linejoin: round; stroke: #000000" x1="667" y1="561.65" x2="750.264" y2="561.65"/>
    <polygon style="fill: #000000" points="558,436 558,430 564,430 564,436 "/>
    <line style="fill: none; fill-opacity:0; stroke-width: 2; stroke: #000000" x1="561" y1="439" x2="561" y2="427"/>
    <polygon style="fill: #000000" points="757.764,561.65 747.764,566.65 750.264,561.65 747.764,556.65 "/>
    <polygon style="fill: none; fill-opacity:0; stroke-width: 2; stroke: #000000" points="757.764,561.65 747.764,566.65 750.264,561.65 747.764,556.65 "/>
  </g>
  <g>
    <path style="fill: none; fill-opacity:0; stroke-width: 2; stroke-linejoin: round; stroke: #000000" d="M 651,373 A 8,8 0 0 0 659,365"/>
    <line style="fill: none; fill-opacity:0; stroke-width: 2; stroke-linejoin: round; stroke: #000000" x1="563" y1="373" x2="651" y2="373"/>
    <path style="fill: none; fill-opacity:0; stroke-width: 2; stroke-linejoin: round; stroke: #000000" d="M 667,283.3 A 8,8 0 0 0 659,291.3"/>
    <line style="fill: none; fill-opacity:0; stroke-width: 2; stroke-linejoin: round; stroke: #000000" x1="659" y1="365" x2="659" y2="291.3"/>
    <line style="fill: none; fill-opacity:0; stroke-width: 2; stroke-linejoin: round; stroke: #000000" x1="667" y1="283.3" x2="750.264" y2="283.3"/>
    <polygon style="fill: #000000" points="558,376 558,370 564,370 564,376 "/>
    <line style="fill: none; fill-opacity:0; stroke-width: 2; stroke: #000000" x1="561" y1="379" x2="561" y2="367"/>
    <polygon style="fill: #000000" points="757.764,283.3 747.764,288.3 750.264,283.3 747.764,278.3 "/>
    <polygon style="fill: none; fill-opacity:0; stroke-width: 2; stroke: #000000" points="757.764,283.3 747.764,288.3 750.264,283.3 747.764,278.3 "/>
  </g>
  <g>
    <rect style="fill: #ccede2" x="500" y="180" width="160" height="80"/>
    <rect style="fill: none; fill-opacity:0; stroke-width: 2; stroke: #000000" x="500" y="180" width="160" height="80"/>
    <text font-size="12.8016" style="fill: #000000;text-anchor:middle;font-family:sans-serif;font-style:normal;font-weight:700" x="580" y="216.848">
      <tspan x="580" y="216.848">DBMS</tspan>
      <tspan x="580" y="232.85"></tspan>
    </text>
    <text font-size="9.6012" style="fill: #000000;text-anchor:end;font-family:sans-serif;font-style:normal;font-weight:700" x="656.4" y="256.4"/>
  </g>
  <g>
    <path style="fill: none; fill-opacity:0; stroke-width: 2; stroke-linejoin: round; stroke: #000000" d="M 458,220 A 8,8 0 0 0 450,228"/>
    <line style="fill: none; fill-opacity:0; stroke-width: 2; stroke-linejoin: round; stroke: #000000" x1="450" y1="348" x2="450" y2="228"/>
    <line style="fill: none; fill-opacity:0; stroke-width: 2; stroke-linejoin: round; stroke: #000000" x1="458" y1="220" x2="490.264" y2="220"/>
    <polygon style="fill: #000000" points="453,353 447,353 447,347 453,347 "/>
    <line style="fill: none; fill-opacity:0; stroke-width: 2; stroke: #000000" x1="456" y1="350" x2="444" y2="350"/>
    <polygon style="fill: #000000" points="497.764,220 487.764,225 490.264,220 487.764,215 "/>
    <polygon style="fill: none; fill-opacity:0; stroke-width: 2; stroke: #000000" points="497.764,220 487.764,225 490.264,220 487.764,215 "/>
  </g>
</svg>
